<svg xmlns="http://www.w3.org/2000/svg" width="77.375" height="83.641" viewBox="0 0 77.375 83.641">
    <defs>
        <style>
            .cls-1{fill:#426175}.cls-2{fill:#cdd6df}.cls-3{fill:#2c4456}.cls-4{fill:#88dbfd}.cls-5{fill:#abb2ba}.cls-6{fill:#f2f2f2}.cls-7{fill:#fd715c}
        </style>
    </defs>
    <g id="blog" transform="translate(-19.18)">
        <g id="Group_49" data-name="Group 49" transform="translate(20.405 1.225)">
            <g id="Group_46" data-name="Group 46">
                <g id="Group_40" data-name="Group 40" transform="translate(22.183 60.213)">
                    <path id="Path_51" d="M196.991 376.089h-8.6c0 13.234-8.063 20.007-8.063 20.007h24.723s-8.06-6.773-8.06-20.007z" class="cls-1" data-name="Path 51" transform="translate(-177.414 -376.089)"/>
                    <path id="Path_52" d="M191.806 478.232H163.7a1.225 1.225 0 0 1-1.225-1.225 3.9 3.9 0 0 1 3.9-3.9h22.749a3.9 3.9 0 0 1 3.9 3.9 1.225 1.225 0 0 1-1.218 1.225z" class="cls-2" data-name="Path 52" transform="translate(-162.474 -457.255)"/>
                </g>
                <g id="Group_45" data-name="Group 45">
                    <g id="Group_44" data-name="Group 44" transform="translate(0 8.436)">
                        <g id="Group_43" data-name="Group 43">
                            <g id="Group_42" data-name="Group 42">
                                <g id="Group_41" data-name="Group 41">
                                    <path id="Path_53" d="M98.692 116.157h-69.1a2.912 2.912 0 0 1-2.912-2.912V62.054a2.912 2.912 0 0 1 2.912-2.912h69.1a2.912 2.912 0 0 1 2.912 2.912v51.192a2.912 2.912 0 0 1-2.912 2.911z" class="cls-1" data-name="Path 53" transform="translate(-26.68 -59.142)"/>
                                    <path id="Path_54" d="M98.692 116.157h-69.1a2.912 2.912 0 0 1-2.912-2.912V62.054a2.912 2.912 0 0 1 2.912-2.912h69.1a2.912 2.912 0 0 1 2.912 2.912v51.192a2.912 2.912 0 0 1-2.912 2.911z" class="cls-1" data-name="Path 54" transform="translate(-26.68 -59.142)"/>
                                    <path id="Path_55" d="M422.555 116.158a2.912 2.912 0 0 0 2.912-2.912V62.055a2.912 2.912 0 0 0-2.912-2.912h-5.864v54.1a2.912 2.912 0 0 1-2.912 2.912h8.775z" class="cls-3" data-name="Path 55" transform="translate(-350.543 -59.143)"/>
                                    <path id="Rectangle_122" d="M0 0h66.482v39.722H0z" class="cls-4" data-name="Rectangle 122" transform="translate(4.221 4.372)"/>
                                    <path id="Path_56" d="M26.68 356.739v5.488a2.912 2.912 0 0 0 2.912 2.912h69.1a2.912 2.912 0 0 0 2.912-2.912v-5.488z" class="cls-2" data-name="Path 56" transform="translate(-26.68 -308.123)"/>
                                    <path id="Path_57" d="M422.556 365.139a2.912 2.912 0 0 0 2.912-2.912v-5.488h-8.775v5.488a2.912 2.912 0 0 1-2.911 2.912z" class="cls-5" data-name="Path 57" transform="translate(-350.544 -308.123)"/>
                                </g>
                            </g>
                        </g>
                    </g>
                    <path id="Path_58" d="M162.3 60.03h-45.476V9.181a1.681 1.681 0 0 1 1.681-1.681h42.11a1.681 1.681 0 0 1 1.685 1.681V60.03z" class="cls-6" data-name="Path 58" transform="translate(-102.098 -7.5)"/>
                    <path id="Path_59" d="M339.943 7.5h-8.775a1.681 1.681 0 0 1 1.681 1.681V60.03h8.775V9.181a1.681 1.681 0 0 0-1.681-1.681z" class="cls-2" data-name="Path 59" transform="translate(-281.427 -7.5)"/>
                </g>
            </g>
            <g id="Group_48" data-name="Group 48" transform="translate(21.139 9.137)">
                <g id="Group_47" data-name="Group 47">
                    <path id="Path_60" d="M164.5 63.43c.508 0 .744.544.744 1.052 0 .562-.272 1.07-.744 1.07h-2.649v10.4c0 .49-.6.744-1.179.744-.6 0-1.179-.254-1.179-.744v-10.4h-2.667c-.472 0-.744-.49-.744-1.07 0-.508.236-1.052.744-1.052z" class="cls-7" data-name="Path 60" transform="translate(-156.082 -63.43)"/>
                </g>
            </g>
        </g>
        <g id="Group_50" data-name="Group 50" transform="translate(19.18)">
            <path id="Path_61" d="M268.843 68.831h-16.118a1.225 1.225 0 0 0 0 2.45h16.118a1.225 1.225 0 0 0 0-2.45z" data-name="Path 61" transform="translate(-213.548 -57.587)"/>
            <path id="Path_62" d="M268.843 127.621h-16.118a1.225 1.225 0 0 0 0 2.45h16.118a1.225 1.225 0 0 0 0-2.45z" data-name="Path 62" transform="translate(-213.548 -106.773)"/>
            <path id="Path_63" d="M181.622 186.412h-33.148a1.225 1.225 0 0 0 0 2.45h33.148a1.225 1.225 0 0 0 0-2.45z" data-name="Path 63" transform="translate(-126.328 -155.96)"/>
            <path id="Path_64" d="M165.5 245.2h-17.026a1.225 1.225 0 0 0 0 2.45H165.5a1.225 1.225 0 1 0 0-2.45z" data-name="Path 64" transform="translate(-126.328 -205.146)"/>
            <path id="Path_65" d="M47.467 52.53V15.258h4.379a1.225 1.225 0 1 0 0-2.45h-5.6a1.225 1.225 0 0 0-1.225 1.225v39.722a1.225 1.225 0 0 0 1.225 1.225h66.482a1.225 1.225 0 0 0 1.225-1.225V14.033a1.225 1.225 0 0 0-1.225-1.225h-5.6a1.225 1.225 0 0 0 0 2.45h4.372v37.271h-8.055V2.906A2.91 2.91 0 0 0 100.538 0H58.429a2.91 2.91 0 0 0-2.906 2.906V52.53h-8.056zM57.973 2.906a.456.456 0 0 1 .456-.456h42.11a.456.456 0 0 1 .456.456V52.53H57.973z" data-name="Path 65" transform="translate(-40.796)"/>
            <path id="Path_66" d="M92.417 51.643H85.5a1.225 1.225 0 0 0 0 2.45h6.914A1.688 1.688 0 0 1 94.1 55.78v44.479H21.63V55.78a1.688 1.688 0 0 1 1.687-1.687h6.913a1.225 1.225 0 1 0 0-2.45h-6.913a4.142 4.142 0 0 0-4.137 4.137v51.191a4.142 4.142 0 0 0 4.137 4.137h28.319a26.418 26.418 0 0 1-3.324 8.159h-1.819a5.135 5.135 0 0 0-5.129 5.129 2.453 2.453 0 0 0 2.45 2.45H71.92a2.453 2.453 0 0 0 2.45-2.45 5.135 5.135 0 0 0-5.129-5.129h-1.818a26.418 26.418 0 0 1-3.324-8.159h28.318a4.142 4.142 0 0 0 4.137-4.137V55.78a4.142 4.142 0 0 0-4.137-4.137zM71.922 124.4H43.814a2.682 2.682 0 0 1 2.679-2.679h22.749a2.684 2.684 0 0 1 2.68 2.679zm-7.337-5.129H51.15a29.067 29.067 0 0 0 2.993-8.159h7.449a29.062 29.062 0 0 0 2.993 8.156zm27.833-10.61h-69.1a1.688 1.688 0 0 1-1.687-1.687v-4.263H94.1v4.263a1.689 1.689 0 0 1-1.683 1.684z" data-name="Path 66" transform="translate(-19.18 -43.207)"/>
        </g>
    </g>
</svg>
