<svg xmlns="http://www.w3.org/2000/svg" width="24.209" height="21.5" viewBox="0 0 24.209 21.5">
    <defs>
        <style>
            .cls-1{fill:#37a000}
        </style>
    </defs>
    <g id="checkmark-for-verification" transform="translate(0 -5.46)">
        <path id="Path_5" d="M24.04 8.411l-3.217-2.827a.5.5 0 0 0-.7.045L8.456 18.908l-4.148-5.491a.5.5 0 0 0-.327-.192.489.489 0 0 0-.367.1L.2 15.9a.5.5 0 0 0-.1.695l7.681 10.169a.5.5 0 0 0 .377.2h.018a.5.5 0 0 0 .373-.169L24.085 9.111a.5.5 0 0 0-.045-.7z" class="cls-1" data-name="Path 5"/>
    </g>
</svg>
