<svg xmlns="http://www.w3.org/2000/svg" width="86.064" height="83.641" viewBox="0 0 86.064 83.641">
    <defs>
        <style>
            .cls-1{fill:#426175}.cls-2{fill:#cdd6df}.cls-3{fill:#2c4456}.cls-4{fill:#f2f2f2}.cls-5{fill:#abb2ba}.cls-6{fill:#46d1c0}.cls-7{fill:#fd715c}.cls-8{fill:#fed066}.cls-9{fill:#88dbfd}
        </style>
    </defs>
    <g id="design" transform="translate(0 -7.208)">
        <g id="Group_62" data-name="Group 62" transform="translate(1.261 8.469)">
            <g id="Group_56" data-name="Group 56">
                <g id="Group_55" data-name="Group 55">
                    <g id="Group_54" data-name="Group 54">
                        <g id="Group_51" data-name="Group 51" transform="translate(21.743 53.621)">
                            <path id="Path_67" d="M181.44 333.7h-11.27c0 17.347-10.569 26.227-10.569 26.227h32.408s-10.569-8.878-10.569-26.227z" class="cls-1" data-name="Path 67" transform="translate(-155.777 -333.702)"/>
                            <path id="Path_68" d="M175.3 464.016h-36.842a1.606 1.606 0 0 1-1.606-1.606 5.118 5.118 0 0 1 5.118-5.118h29.82a5.118 5.118 0 0 1 5.118 5.118 1.606 1.606 0 0 1-1.608 1.606z" class="cls-2" data-name="Path 68" transform="translate(-136.852 -436.517)"/>
                        </g>
                        <g id="Group_53" data-name="Group 53">
                            <g id="Group_52" data-name="Group 52">
                                <path id="Path_69" d="M87.8 78.282H10.747A3.247 3.247 0 0 1 7.5 75.035v-57.08a3.247 3.247 0 0 1 3.247-3.247H87.8a3.247 3.247 0 0 1 3.247 3.247v57.08a3.247 3.247 0 0 1-3.247 3.247z" class="cls-1" data-name="Path 69" transform="translate(-7.5 -14.708)"/>
                                <path id="Path_70" d="M440.5 14.709h-9.03a3.247 3.247 0 0 1 3.247 3.247v57.08a3.247 3.247 0 0 1-3.247 3.247h9.03a3.247 3.247 0 0 0 3.247-3.247v-57.08a3.247 3.247 0 0 0-3.247-3.247z" class="cls-3" data-name="Path 70" transform="translate(-360.201 -14.709)"/>
                                <path id="Rectangle_123" d="M0 0h74.13v44.291H0z" class="cls-4" data-name="Rectangle 123" transform="translate(4.706 4.875)"/>
                                <path id="Path_71" d="M7.5 337.2v6.119a3.247 3.247 0 0 0 3.247 3.247H87.8a3.247 3.247 0 0 0 3.247-3.247V337.2z" class="cls-2" data-name="Path 71" transform="translate(-7.5 -282.987)"/>
                                <path id="Path_72" d="M440.5 346.56a3.247 3.247 0 0 0 3.247-3.247v-6.119h-9.03v6.119a3.247 3.247 0 0 1-3.246 3.247z" class="cls-5" data-name="Path 72" transform="translate(-360.202 -282.986)"/>
                            </g>
                        </g>
                    </g>
                </g>
            </g>
            <g id="Group_61" data-name="Group 61" transform="translate(10.843 10.401)">
                <g id="Group_59" data-name="Group 59" transform="translate(21.71 .507)">
                    <g id="Group_58" data-name="Group 58" transform="translate(0 4.883)">
                        <g id="Group_57" data-name="Group 57">
                            <path id="Path_73" d="M220 108.653c-3 2.753-8.989 3.443-12.142 3.614a2.685 2.685 0 0 0-2.485 2.126l-4.21 20 20-4.21a2.685 2.685 0 0 0 2.126-2.485c.17-3.152.86-9.141 3.614-12.142zm-4.4 15.764a3.152 3.152 0 1 1 0-4.458 3.152 3.152 0 0 1-.008 4.458z" class="cls-6" data-name="Path 73" transform="translate(-201.16 -108.653)"/>
                        </g>
                    </g>
                    <path id="Path_74" d="M318.075 79.6l-4.851 4.883 6.9 6.9 4.883-4.851z" class="cls-1" data-name="Path 74" transform="translate(-294.387 -79.604)"/>
                </g>
                <g id="Group_60" data-name="Group 60">
                    <path id="Path_75" d="M77.913 83.478h-4.918a.987.987 0 0 1-.987-.987v-4.918a.987.987 0 0 1 .987-.987h4.918a.987.987 0 0 1 .987.987v4.918a.987.987 0 0 1-.987.987z" class="cls-7" data-name="Path 75" transform="translate(-72.008 -76.586)"/>
                    <path id="Path_76" d="M77.913 157.58h-4.918a.987.987 0 0 1-.987-.987v-4.918a.987.987 0 0 1 .987-.987h4.918a.987.987 0 0 1 .987.987v4.918a.987.987 0 0 1-.987.987z" class="cls-8" data-name="Path 76" transform="translate(-72.008 -138.232)"/>
                    <path id="Path_77" d="M77.913 230.683h-4.918a.987.987 0 0 1-.987-.987v-4.918a.987.987 0 0 1 .987-.987h4.918a.987.987 0 0 1 .987.987v4.922a.987.987 0 0 1-.987.983z" class="cls-9" data-name="Path 77" transform="translate(-72.008 -199.047)"/>
                </g>
            </g>
        </g>
        <g id="Group_63" data-name="Group 63" transform="translate(0 7.208)">
            <path id="Path_78" d="M81.557 7.208H4.507A4.513 4.513 0 0 0 0 11.715V68.8a4.513 4.513 0 0 0 4.507 4.5h29.981a34.786 34.786 0 0 1-3.788 8.3h-2.578a6.386 6.386 0 0 0-6.378 6.378 2.87 2.87 0 0 0 2.867 2.867h36.843a2.87 2.87 0 0 0 2.867-2.867 6.385 6.385 0 0 0-6.378-6.378h-2.576a34.784 34.784 0 0 1-3.792-8.3h29.982a4.512 4.512 0 0 0 4.507-4.5V11.715a4.513 4.513 0 0 0-4.507-4.507zM4.507 9.729h77.05a1.988 1.988 0 0 1 1.986 1.986v49.7H2.521v-49.7a1.988 1.988 0 0 1 1.986-1.986zM61.8 87.982a.346.346 0 0 1-.345.345H24.61a.346.346 0 0 1-.345-.345 3.861 3.861 0 0 1 3.857-3.857h29.82a3.861 3.861 0 0 1 3.858 3.857zM52.428 81.6H33.636a37.567 37.567 0 0 0 3.483-8.3h11.827a37.562 37.562 0 0 0 3.482 8.3zm29.129-10.818H4.507A1.988 1.988 0 0 1 2.521 68.8v-4.862h81.022V68.8a1.988 1.988 0 0 1-1.986 1.982z" data-name="Path 78" transform="translate(0 -7.208)"/>
            <path id="Path_79" d="M29.26 200.91h74.13a1.261 1.261 0 0 0 1.261-1.261v-20.47a1.261 1.261 0 1 0-2.521 0v19.209H30.52v-19.2a1.261 1.261 0 1 0-2.521 0v20.461a1.261 1.261 0 0 0 1.261 1.261z" data-name="Path 79" transform="translate(-23.293 -149.223)"/>
            <path id="Path_80" d="M29.26 57.507a1.261 1.261 0 0 0 1.261-1.261V38.729h71.608v17.518a1.261 1.261 0 1 0 2.521 0V37.469a1.261 1.261 0 0 0-1.261-1.261H29.26A1.261 1.261 0 0 0 28 37.469v18.778a1.261 1.261 0 0 0 1.26 1.26z" data-name="Path 80" transform="translate(-23.293 -31.333)"/>
            <path id="Path_81" d="M73.921 71.333a2.25 2.25 0 0 0-2.247-2.247h-4.919a2.25 2.25 0 0 0-2.247 2.247v4.918a2.25 2.25 0 0 0 2.247 2.249h4.918a2.25 2.25 0 0 0 2.247-2.247zM71.4 75.978h-4.37v-4.37h4.37v4.37z" data-name="Path 81" transform="translate(-53.665 -58.685)"/>
            <path id="Path_82" d="M73.921 145.435a2.25 2.25 0 0 0-2.247-2.247h-4.919a2.25 2.25 0 0 0-2.247 2.247v4.918a2.25 2.25 0 0 0 2.247 2.247h4.918a2.25 2.25 0 0 0 2.247-2.247zM71.4 150.08h-4.37v-4.37h4.37v4.37z" data-name="Path 82" transform="translate(-53.665 -120.331)"/>
            <path id="Path_83" d="M71.674 216.291h-4.919a2.25 2.25 0 0 0-2.247 2.247v4.918a2.25 2.25 0 0 0 2.247 2.247h4.918a2.25 2.25 0 0 0 2.247-2.247v-4.918a2.25 2.25 0 0 0-2.246-2.247zm-.274 6.892h-4.37v-4.37h4.37z" data-name="Path 83" transform="translate(-53.665 -181.145)"/>
            <path id="Path_84" d="M193.661 104.005V104.149a1.252 1.252 0 0 0 .277.632l.023.027v.005l.02.022.006.006.026.027.023.022.016.014.007.007a1.257 1.257 0 0 0 .777.324h.229q.057-.008.114-.02l19.98-4.206a3.952 3.952 0 0 0 3.126-3.651c.4-7.4 2.4-10.383 3.264-11.336l4.862-4.83a1.261 1.261 0 0 0 0-1.786L219.5 72.47a1.261 1.261 0 0 0-.892-.369 1.261 1.261 0 0 0-.892.372l-4.828 4.86c-.951.863-3.93 2.866-11.338 3.266a3.952 3.952 0 0 0-3.651 3.126l-4.207 19.983a1.279 1.279 0 0 0-.022.131v.152a.139.139 0 0 0-.009.014zm24.952-28.857l5.144 5.144-3.094 3.074-5.124-5.124zm-18.248 9.1a1.427 1.427 0 0 1 1.32-1.127c3.116-.168 8.557-.811 11.976-3.187l5.313 5.313c-2.376 3.419-3.019 8.86-3.187 11.976a1.427 1.427 0 0 1-1.127 1.32l-15.848 3.337 6.214-6.214a4.4 4.4 0 1 0-1.784-1.782l-6.213 6.213zm4.868 7.535a1.892 1.892 0 1 1 .554 1.338 1.879 1.879 0 0 1-.553-1.341z" data-name="Path 84" transform="translate(-161.108 -61.193)"/>
        </g>
    </g>
</svg>
