<svg xmlns="http://www.w3.org/2000/svg" width="31.217" height="31.217" viewBox="0 0 31.217 31.217">
    <defs>
        <style>
            .cls-1{fill:#fff}
        </style>
    </defs>
    <g id="instagram">
        <path id="Path_1008" d="M15.608 0a15.608 15.608 0 1 0 15.609 15.608A15.609 15.609 0 0 0 15.608 0zm0 30.176a14.568 14.568 0 1 1 14.568-14.568 14.568 14.568 0 0 1-14.568 14.568zm0 0" class="cls-1" data-name="Path 1008"/>
        <path id="Path_1009" d="M112.129 96H98.6a2.6 2.6 0 0 0-2.6 2.6v13.527a2.6 2.6 0 0 0 2.6 2.6h13.527a2.6 2.6 0 0 0 2.6-2.6V98.6a2.6 2.6 0 0 0-2.598-2.6zm1.561 16.129a1.561 1.561 0 0 1-1.561 1.561H98.6a1.561 1.561 0 0 1-1.561-1.561V98.6a1.561 1.561 0 0 1 1.561-1.559h13.527a1.561 1.561 0 0 1 1.563 1.559zm0 0" class="cls-1" data-name="Path 1009" transform="translate(-89.757 -89.757)"/>
        <path id="Path_1010" d="M165.2 160a5.2 5.2 0 1 0 5.2 5.2 5.2 5.2 0 0 0-5.2-5.2zm0 9.365a4.162 4.162 0 1 1 4.162-4.162 4.162 4.162 0 0 1-4.162 4.162zm0 0" class="cls-1" data-name="Path 1010" transform="translate(-149.594 -149.594)"/>
        <path id="Path_1011" d="M305.561 128a1.561 1.561 0 1 0 1.561 1.561 1.561 1.561 0 0 0-1.561-1.561zm0 2.081a.52.52 0 1 1 .52-.52.52.52 0 0 1-.52.52zm0 0" class="cls-1" data-name="Path 1011" transform="translate(-284.229 -119.676)"/>
    </g>
</svg>
