<svg xmlns="http://www.w3.org/2000/svg" width="118.613" height="31.465" viewBox="0 0 118.613 31.465">
    <defs>
        <style>
            .cls-1{fill:#2c3540}
        </style>
    </defs>
    <path id="Path_1024" d="M8.164-30.156v25.879h8.867V0H3.613v-30.156zm26.367 11.133h4.414V0h-4.414v-1.992a8.429 8.429 0 0 1-5.84 2.539A8.414 8.414 0 0 1 22.168-2.3a10.6 10.6 0 0 1-2.559-7.27 10.278 10.278 0 0 1 2.559-7.13 8.248 8.248 0 0 1 6.406-2.852 8.09 8.09 0 0 1 5.957 2.734zM24.1-9.57a6.626 6.626 0 0 0 1.465 4.453 4.8 4.8 0 0 0 3.789 1.738 5.043 5.043 0 0 0 3.946-1.68 6.5 6.5 0 0 0 1.5-4.414 6.5 6.5 0 0 0-1.5-4.414 4.972 4.972 0 0 0-3.906-1.7 4.858 4.858 0 0 0-3.789 1.719A6.336 6.336 0 0 0 24.1-9.57zm23.105-9.453L52.129-8.34l4.9-10.684h4.941L52.09 1.309l-9.8-20.332zm16.076 9.375a9.453 9.453 0 0 1 2.949-7.012 9.882 9.882 0 0 1 7.188-2.891 9.937 9.937 0 0 1 7.227 2.91 9.685 9.685 0 0 1 2.93 7.148 9.634 9.634 0 0 1-2.949 7.168A10.08 10.08 0 0 1 73.34.547a9.667 9.667 0 0 1-7.168-2.93 9.853 9.853 0 0 1-2.891-7.265zm4.492.078A6.416 6.416 0 0 0 69.3-5.059a5.364 5.364 0 0 0 4.121 1.68 5.357 5.357 0 0 0 4.121-1.66 6.253 6.253 0 0 0 1.543-4.434 6.253 6.253 0 0 0-1.543-4.434 5.364 5.364 0 0 0-4.121-1.68 5.317 5.317 0 0 0-4.082 1.68 6.112 6.112 0 0 0-1.566 4.337zm20.449-9.453h4.395v1.7a8.392 8.392 0 0 1 2.148-1.738 4.927 4.927 0 0 1 2.266-.488 7.1 7.1 0 0 1 3.633 1.133l-2.012 4.023a4.2 4.2 0 0 0-2.441-.9q-3.594 0-3.594 5.43V0h-4.394zm13.711 9.375a9.453 9.453 0 0 1 2.949-7.012 9.882 9.882 0 0 1 7.188-2.891 9.937 9.937 0 0 1 7.227 2.91 9.685 9.685 0 0 1 2.93 7.148 9.634 9.634 0 0 1-2.949 7.168 10.08 10.08 0 0 1-7.286 2.872 9.667 9.667 0 0 1-7.168-2.93 9.853 9.853 0 0 1-2.89-7.265zm4.492.078a6.416 6.416 0 0 0 1.523 4.512 5.364 5.364 0 0 0 4.121 1.68 5.357 5.357 0 0 0 4.121-1.66 6.253 6.253 0 0 0 1.543-4.434 6.253 6.253 0 0 0-1.543-4.434 5.364 5.364 0 0 0-4.121-1.68 5.317 5.317 0 0 0-4.082 1.68 6.112 6.112 0 0 0-1.561 4.336z" class="cls-1" data-name="Path 1024" transform="translate(-3.613 30.156)"/>
</svg>
