<svg xmlns="http://www.w3.org/2000/svg" id="seo" width="83.641" height="83.641" viewBox="0 0 83.641 83.641">
    <defs>
        <style>
            .cls-1{fill:#f2f2f2}.cls-2{fill:#cdd6df}.cls-3{fill:#426175}.cls-4{fill:#2c4456}.cls-5{fill:#fed066}.cls-6{fill:#33bca5}.cls-7{fill:#f5b556}.cls-8{fill:#fd715c}.cls-9{fill:#46d1c0}
        </style>
    </defs>
    <g id="Group_29" data-name="Group 29" transform="translate(0 1.225)">
        <g id="Group_27" data-name="Group 27">
            <g id="Group_26" data-name="Group 26">
                <g id="Group_20" data-name="Group 20" transform="translate(1.225)">
                    <g id="Group_19" data-name="Group 19">
                        <g id="Group_18" data-name="Group 18">
                            <g id="Group_15" data-name="Group 15">
                                <g id="Group_14" data-name="Group 14">
                                    <g id="Group_13" data-name="Group 13">
                                        <g id="Group_12" data-name="Group 12">
                                            <path id="Path_21" d="M85.637 88.69H10.553A3.053 3.053 0 0 1 7.5 85.637V10.553A3.053 3.053 0 0 1 10.553 7.5h75.084a3.053 3.053 0 0 1 3.053 3.053v75.084a3.053 3.053 0 0 1-3.053 3.053z" class="cls-1" data-name="Path 21" transform="translate(-7.5 -7.5)"/>
                                            <path id="Path_22" d="M440.868 7.5h-8.775a3.053 3.053 0 0 1 3.053 3.053v75.084a3.053 3.053 0 0 1-3.053 3.053h8.775a3.053 3.053 0 0 0 3.053-3.053V10.553a3.053 3.053 0 0 0-3.053-3.053z" class="cls-2" data-name="Path 22" transform="translate(-362.731 -7.5)"/>
                                            <path id="Path_23" d="M85.637 7.5H10.553A3.053 3.053 0 0 0 7.5 10.553v9.1h81.19v-9.1A3.053 3.053 0 0 0 85.637 7.5z" class="cls-3" data-name="Path 23" transform="translate(-7.5 -7.5)"/>
                                            <path id="Path_24" d="M443.925 19.657v-9.1a3.053 3.053 0 0 0-3.054-3.057H432.1a3.053 3.053 0 0 1 3.053 3.053v9.1z" class="cls-4" data-name="Path 24" transform="translate(-362.735 -7.5)"/>
                                        </g>
                                    </g>
                                </g>
                            </g>
                            <g id="Group_17" data-name="Group 17" transform="translate(57.765 4.542)">
                                <g id="Group_16" data-name="Group 16">
                                    <circle id="Ellipse_4" cx="1.537" cy="1.537" r="1.537" class="cls-5" data-name="Ellipse 4"/>
                                    <circle id="Ellipse_5" cx="1.537" cy="1.537" r="1.537" class="cls-5" data-name="Ellipse 5" transform="translate(7.368)"/>
                                    <circle id="Ellipse_6" cx="1.537" cy="1.537" r="1.537" class="cls-5" data-name="Ellipse 6" transform="translate(14.737)"/>
                                </g>
                            </g>
                        </g>
                    </g>
                </g>
                <g id="Group_25" data-name="Group 25" transform="translate(0 17.254)">
                    <g id="Group_23" data-name="Group 23">
                        <g id="Group_22" data-name="Group 22" transform="translate(17.079 1.213)">
                            <g id="Group_21" data-name="Group 21">
                                <circle id="Ellipse_7" cx="24.654" cy="24.654" r="24.654" class="cls-6" data-name="Ellipse 7"/>
                                <circle id="Ellipse_8" cx="19.511" cy="19.511" r="19.511" class="cls-1" data-name="Ellipse 8" transform="translate(5.143 5.143)"/>
                                <path id="Path_25" d="M246.79 157.751a19.5 19.5 0 0 0-18.184-5.216 19.512 19.512 0 0 1 0 38.024 19.511 19.511 0 0 0 18.184-32.808z" class="cls-2" data-name="Path 25" transform="translate(-208.339 -146.893)"/>
                            </g>
                        </g>
                        <path id="Path_26" d="M391.355 404.554l-2.8 2.8a1.485 1.485 0 0 1-2.1 0l-11.438-11.438a1.485 1.485 0 0 1 0-2.1l2.8-2.8a1.485 1.485 0 0 1 2.1 0l11.438 11.438a1.485 1.485 0 0 1 0 2.1z" class="cls-7" data-name="Path 26" transform="translate(-313.39 -345.254)"/>
                        <path id="Path_27" d="M82.415 123.2a1.225 1.225 0 0 0-1.225 1.225V174a1.83 1.83 0 0 1-1.828 1.828h-3.075l2.545-2.545a2.71 2.71 0 0 0 0-3.832l-11.438-11.439a2.713 2.713 0 0 0-3.832 0l-.534.534-2.15-2.15a25.84 25.84 0 1 0-1.733 1.733l2.15 2.15-.534.534a2.71 2.71 0 0 0 0 3.832l11.183 11.184H4.279A1.83 1.83 0 0 1 2.45 174v-10.663a1.225 1.225 0 1 0-2.45 0V174a4.284 4.284 0 0 0 4.279 4.279h75.083A4.284 4.284 0 0 0 83.641 174v-49.575a1.225 1.225 0 0 0-1.226-1.225zm-57.249 32.351a23.429 23.429 0 1 1 33.133 0 23.276 23.276 0 0 1-33.133 0zm37.251 7.178a.255.255 0 0 1 .076-.184l2.8-2.8a.26.26 0 0 1 .367 0l11.44 11.438a.26.26 0 0 1 0 .367l-2.8 2.8a.26.26 0 0 1-.367 0l-11.44-11.438a.254.254 0 0 1-.076-.183z" data-name="Path 27" transform="translate(0 -113.117)"/>
                    </g>
                    <g id="Group_24" data-name="Group 24" transform="translate(28.191 19.237)">
                        <path id="Path_28" d="M178.208 239.75c0-2.909-5.341-1.775-5.341-5.719 0-2.432 2.038-3.155 3.8-3.155 1.068 0 2.991.279 2.991 1.183 0 .329-.23.937-.723.937-.444 0-.871-.625-2.268-.625-1.2 0-2.054.46-2.054 1.5 0 2.432 5.341 1.331 5.341 5.7 0 2.35-1.578 3.5-3.747 3.5-2.136 0-3.632-1.118-3.632-1.939 0-.395.345-.937.756-.937.592 0 .986 1.3 2.81 1.3 1.18-.003 2.067-.561 2.067-1.745z" class="cls-8" data-name="Path 28" transform="translate(-172.571 -230.876)"/>
                        <path id="Path_29" d="M234.777 236.484h2.531a.629.629 0 0 1 .575.707.615.615 0 0 1-.575.674h-2.531v3.78h4.881c.362 0 .575.362.575.789 0 .362-.181.756-.575.756h-5.851c-.378 0-.773-.2-.773-.575v-10.864c0-.378.395-.575.773-.575h5.851c.394 0 .575.395.575.756 0 .427-.214.789-.575.789h-4.881v3.764z" class="cls-8" data-name="Path 29" transform="translate(-223.158 -231.127)"/>
                        <path id="Path_30" d="M289.275 239.624v-4.782c0-2.662 1.594-3.665 3.681-3.665 2.071 0 3.7 1 3.7 3.665v4.782c0 2.662-1.627 3.665-3.7 3.665-2.087 0-3.681-1.003-3.681-3.665zm5.637-4.782c0-1.446-.74-2.12-1.956-2.12-1.233 0-1.939.674-1.939 2.12v4.782c0 1.446.707 2.12 1.939 2.12 1.216 0 1.956-.674 1.956-2.12z" class="cls-8" data-name="Path 30" transform="translate(-270.21 -231.128)"/>
                    </g>
                </g>
            </g>
        </g>
        <g id="Group_28" data-name="Group 28" transform="translate(58.991 4.542)">
            <circle id="Ellipse_9" cx="1.537" cy="1.537" r="1.537" class="cls-9" data-name="Ellipse 9"/>
            <circle id="Ellipse_10" cx="1.537" cy="1.537" r="1.537" class="cls-9" data-name="Ellipse 10" transform="translate(7.368)"/>
            <circle id="Ellipse_11" cx="1.537" cy="1.537" r="1.537" class="cls-9" data-name="Ellipse 11" transform="translate(14.737)"/>
        </g>
    </g>
    <g id="Group_30" data-name="Group 30">
        <path id="Path_31" d="M74.424 37.21H44.586a1.225 1.225 0 0 0 0 2.45h29.838a1.225 1.225 0 0 0 0-2.45z" data-name="Path 31" transform="translate(-36.278 -31.131)"/>
        <path id="Path_32" d="M163.978 150.6a20.736 20.736 0 1 0 0 29.325 20.6 20.6 0 0 0 0-29.325zm-1.732 27.6a18.285 18.285 0 1 1 0-25.859 18.165 18.165 0 0 1 0 25.859z" data-name="Path 32" transform="translate(-107.583 -120.919)"/>
        <path id="Path_33" d="M79.362 0H4.279A4.284 4.284 0 0 0 0 4.279V63.8a1.225 1.225 0 0 0 2.45 0V14.6h78.74v10.255a1.225 1.225 0 0 0 2.45 0V4.279A4.284 4.284 0 0 0 79.362 0zM2.45 12.157V4.279A1.83 1.83 0 0 1 4.279 2.45h75.083a1.83 1.83 0 0 1 1.828 1.829v7.879H2.45z" data-name="Path 33"/>
    </g>
</svg>
