<svg xmlns="http://www.w3.org/2000/svg" width="31.217" height="31.217" viewBox="0 0 31.217 31.217">
    <defs>
        <style>
            .cls-1{fill:#fff}
        </style>
    </defs>
    <g id="twitter-circular-button">
        <g id="Group_314" data-name="Group 314">
            <path id="Path_1012" d="M156.355 168.859c0-.158 0-.314-.01-.468a7.09 7.09 0 0 0 1.721-1.85 6.608 6.608 0 0 1-1.981.542 3.54 3.54 0 0 0 1.515-1.983 6.623 6.623 0 0 1-2.189.844 3.431 3.431 0 0 0-2.517-1.188 3.484 3.484 0 0 0-3.448 3.594 3.832 3.832 0 0 0 .089.833 9.71 9.71 0 0 1-7.109-3.928 3.868 3.868 0 0 0 1.067 4.927 3.3 3.3 0 0 1-1.562-.478v.047a3.663 3.663 0 0 0 2.767 3.63 3.266 3.266 0 0 1-.908.123 3.149 3.149 0 0 1-.648-.071 3.505 3.505 0 0 0 3.222 2.567 6.656 6.656 0 0 1-4.282 1.559 6.569 6.569 0 0 1-.823-.052 9.3 9.3 0 0 0 5.287 1.657c6.341.004 9.809-5.516 9.809-10.305z" class="cls-1" data-name="Path 1012" transform="translate(-134.054 -156.354)"/>
            <path id="Path_1013" d="M31.217 15.608a15.608 15.608 0 1 0-15.609 15.609 15.609 15.609 0 0 0 15.609-15.609zm-29.8 0A14.189 14.189 0 1 1 15.608 29.8 14.189 14.189 0 0 1 1.419 15.608z" class="cls-1" data-name="Path 1013"/>
        </g>
    </g>
</svg>
