<svg xmlns="http://www.w3.org/2000/svg" width="89.644" height="83.641" viewBox="0 0 89.644 83.641">
    <defs>
        <style>
            .cls-1{fill:#88dbfd}.cls-2{fill:#f2f2f2}.cls-3{fill:#5abfe9}.cls-4{fill:#cdd6df}.cls-5{fill:#abb2ba}.cls-6{fill:#426175}.cls-7{fill:#fd715c}
        </style>
    </defs>
    <g id="video-production" transform="translate(0 -17.143)">
        <g id="Group_38" data-name="Group 38" transform="translate(1.313 18.456)">
            <g id="Group_33" data-name="Group 33" transform="translate(5.268)">
                <g id="Group_31" data-name="Group 31">
                    <circle id="Ellipse_12" cx="15.184" cy="15.184" r="15.184" class="cls-1" data-name="Ellipse 12"/>
                    <path id="Path_34" d="M100.567 92.664a5.039 5.039 0 1 1 5.039-5.039 5.045 5.045 0 0 1-5.039 5.039z" class="cls-2" data-name="Path 34" transform="translate(-85.383 -72.441)"/>
                </g>
                <g id="Group_32" data-name="Group 32" transform="translate(10.421)">
                    <circle id="Ellipse_13" cx="15.184" cy="15.184" r="15.184" class="cls-1" data-name="Ellipse 13" transform="translate(19.946)"/>
                    <path id="Path_35" d="M275.314 24.644a15.159 15.159 0 0 0-4.763.766 15.184 15.184 0 0 1 0 28.835 15.184 15.184 0 1 0 4.763-29.6z" class="cls-3" data-name="Path 35" transform="translate(-240.184 -24.644)"/>
                    <path id="Path_36" d="M101.871 24.644a15.159 15.159 0 0 0-4.763.766 15.184 15.184 0 0 1 0 28.835 15.184 15.184 0 1 0 4.763-29.6z" class="cls-3" data-name="Path 36" transform="translate(-97.108 -24.644)"/>
                    <path id="Path_37" d="M274.011 92.664a5.039 5.039 0 1 1 5.039-5.039 5.045 5.045 0 0 1-5.039 5.039z" class="cls-2" data-name="Path 37" transform="translate(-238.881 -72.441)"/>
                </g>
            </g>
            <g id="Group_37" data-name="Group 37" transform="translate(0 30.013)">
                <g id="Group_35" data-name="Group 35">
                    <g id="Group_34" data-name="Group 34">
                        <path id="Path_38" d="M406.776 260.908l-16.2-12.224V230.8l16.2-12.224a2.34 2.34 0 0 1 3.749 1.867v38.6a2.34 2.34 0 0 1-3.749 1.865z" class="cls-4" data-name="Path 38" transform="translate(-323.507 -214.242)"/>
                        <path id="Path_39" d="M455.875 218.576l-5.776 4.359v33.613l5.776 4.359a2.34 2.34 0 0 0 3.749-1.867v-38.6a2.339 2.339 0 0 0-3.749-1.864z" class="cls-5" data-name="Path 39" transform="translate(-372.606 -214.241)"/>
                        <path id="Path_40" d="M75.776 247.063H10.495a3 3 0 0 1-2.995-2.994v-45.012a3 3 0 0 1 2.995-2.995h65.281a3 3 0 0 1 2.995 2.995v45.012a3 3 0 0 1-2.995 2.994z" class="cls-6" data-name="Path 40" transform="translate(-7.5 -196.062)"/>
                        <path id="Path_41" d="M41.5 269.655V235.91a2 2 0 0 1 2-2h55.364a2 2 0 0 1 2 2v33.746a2 2 0 0 1-2 2H43.5a2 2 0 0 1-2-2.001z" class="cls-2" data-name="Path 41" transform="translate(-35.549 -227.282)"/>
                        <path id="Path_42" d="M333.991 233.907h-7.458v37.749h7.458a2 2 0 0 0 2-2v-33.747a2 2 0 0 0-2-2.002z" class="cls-4" data-name="Path 42" transform="translate(-270.675 -227.281)"/>
                    </g>
                </g>
                <g id="Group_36" data-name="Group 36" transform="translate(21.47 11.464)">
                    <circle id="Ellipse_14" cx="14.165" cy="14.165" r="14.165" class="cls-7" data-name="Ellipse 14"/>
                    <path id="Path_43" d="M187.7 302.7v12.671a.752.752 0 0 0 1.169.626l9.524-6.336a.752.752 0 0 0 0-1.253l-9.524-6.336a.752.752 0 0 0-1.169.628z" class="cls-2" data-name="Path 43" transform="translate(-177.615 -294.868)"/>
                </g>
            </g>
        </g>
        <g id="Group_39" data-name="Group 39" transform="translate(0 17.143)">
            <path id="Path_44" d="M100.733 81.438a6.352 6.352 0 1 0-6.352 6.352 6.359 6.359 0 0 0 6.352-6.352zm-10.078 0a3.726 3.726 0 1 1 3.726 3.726 3.73 3.73 0 0 1-3.726-3.726z" data-name="Path 44" transform="translate(-72.616 -64.941)"/>
            <path id="Path_45" d="M267.824 87.79a6.352 6.352 0 1 0-6.352-6.352 6.359 6.359 0 0 0 6.352 6.352zm0-10.078a3.726 3.726 0 1 1-3.726 3.726 3.73 3.73 0 0 1 3.726-3.726z" data-name="Path 45" transform="translate(-215.692 -64.941)"/>
            <path id="Path_46" d="M94.679 349.4a1.313 1.313 0 0 0-1.313 1.313v14.213a.689.689 0 0 1-.688.689H37.317a.689.689 0 0 1-.689-.689v-14.214a1.313 1.313 0 0 0-2.626 0v14.213a3.319 3.319 0 0 0 3.315 3.315h55.361a3.319 3.319 0 0 0 3.315-3.315v-14.213a1.313 1.313 0 0 0-1.314-1.312z" data-name="Path 46" transform="translate(-28.049 -291.226)"/>
            <path id="Path_47" d="M92.678 226.407H37.317A3.319 3.319 0 0 0 34 229.722v14.213a1.313 1.313 0 0 0 2.626 0v-14.213a.69.69 0 0 1 .689-.689h55.363a.689.689 0 0 1 .688.689v14.213a1.313 1.313 0 0 0 2.626 0v-14.213a3.319 3.319 0 0 0-3.314-3.315z" data-name="Path 47" transform="translate(-28.049 -189.768)"/>
            <path id="Path_48" d="M153.584 269.518A15.478 15.478 0 1 0 138.105 285a15.5 15.5 0 0 0 15.479-15.482zm-28.331 0a12.852 12.852 0 1 1 12.852 12.852 12.867 12.867 0 0 1-12.852-12.852z" data-name="Path 48" transform="translate(-101.157 -212.563)"/>
            <path id="Path_49" d="M193.849 302.848a2.062 2.062 0 0 0-.922-1.72l-9.524-6.336a2.066 2.066 0 0 0-3.21 1.72v12.671a2.065 2.065 0 0 0 3.21 1.72l9.524-6.336a2.061 2.061 0 0 0 .922-1.719zm-11.029 5.289v-10.578l7.951 5.289z" data-name="Path 49" transform="translate(-148.645 -245.894)"/>
            <path id="Path_50" d="M87.62 51.4a3.632 3.632 0 0 0-3.829.354L73.9 59.223v-7.759a4.313 4.313 0 0 0-4.308-4.308h-8.01A16.495 16.495 0 1 0 36.948 27.19a16.5 16.5 0 1 0-24.634 19.966H4.308A4.313 4.313 0 0 0 0 51.464v45.012a4.313 4.313 0 0 0 4.308 4.308h65.281a4.313 4.313 0 0 0 4.311-4.308v-7.759l9.894 7.467a3.653 3.653 0 0 0 5.853-2.915v-38.6A3.632 3.632 0 0 0 87.62 51.4zM52.132 19.769a13.871 13.871 0 0 1 3.114 27.387h-6.228a13.87 13.87 0 0 1 3.114-27.387zM36.948 40.085a16.434 16.434 0 0 0 5.734 7.071H31.215a16.434 16.434 0 0 0 5.734-7.071zM11 42.39a13.868 13.868 0 1 1 13.875 4.766H18.65A13.927 13.927 0 0 1 11 42.39zm60.271 54.086a1.683 1.683 0 0 1-1.682 1.682H4.308a1.683 1.683 0 0 1-1.682-1.682V51.464a1.684 1.684 0 0 1 1.682-1.682h65.281a1.684 1.684 0 0 1 1.682 1.682v45.012zm15.747-3.207a1.026 1.026 0 0 1-1.645.819L73.9 85.426V62.514l11.476-8.661a1.026 1.026 0 0 1 1.645.819z" data-name="Path 50" transform="translate(0 -17.143)"/>
        </g>
    </g>
</svg>
