<svg xmlns="http://www.w3.org/2000/svg" width="86.064" height="83.641" viewBox="0 0 86.064 83.641">
    <defs>
        <style>
            .cls-1{fill:#426175}.cls-2{fill:#cdd6df}.cls-3{fill:#2c4456}.cls-4{fill:#f2f2f2}.cls-5{fill:#46d1c0}.cls-6{fill:#abb2ba}
        </style>
    </defs>
    <g id="web" transform="translate(0 -7.208)">
        <g id="Group_10" data-name="Group 10" transform="translate(0 7.208)">
            <g id="Group_8" data-name="Group 8" transform="translate(1.261 1.261)">
                <g id="Group_7" data-name="Group 7">
                    <g id="Group_6" data-name="Group 6">
                        <g id="Group_3" data-name="Group 3" transform="translate(21.743 53.621)">
                            <path id="Path_6" d="M181.44 333.7h-11.27c0 17.347-10.569 26.227-10.569 26.227h32.408s-10.569-8.878-10.569-26.227z" class="cls-1" data-name="Path 6" transform="translate(-155.777 -333.702)"/>
                            <path id="Path_7" d="M175.3 464.016h-36.842a1.606 1.606 0 0 1-1.606-1.606 5.118 5.118 0 0 1 5.118-5.118h29.82a5.118 5.118 0 0 1 5.118 5.118 1.606 1.606 0 0 1-1.608 1.606z" class="cls-2" data-name="Path 7" transform="translate(-136.852 -436.517)"/>
                        </g>
                        <g id="Group_5" data-name="Group 5">
                            <g id="Group_4" data-name="Group 4">
                                <path id="Path_8" d="M87.8 78.282H10.747A3.247 3.247 0 0 1 7.5 75.035v-57.08a3.247 3.247 0 0 1 3.247-3.247H87.8a3.247 3.247 0 0 1 3.247 3.247v57.08a3.247 3.247 0 0 1-3.247 3.247z" class="cls-1" data-name="Path 8" transform="translate(-7.5 -14.708)"/>
                                <path id="Path_9" d="M440.5 14.709h-9.03a3.247 3.247 0 0 1 3.247 3.247v57.08a3.247 3.247 0 0 1-3.247 3.247h9.03a3.247 3.247 0 0 0 3.247-3.247v-57.08a3.247 3.247 0 0 0-3.247-3.247z" class="cls-3" data-name="Path 9" transform="translate(-360.201 -14.709)"/>
                                <path id="Rectangle_119" d="M0 0h74.13v44.291H0z" class="cls-4" data-name="Rectangle 119" transform="translate(4.706 4.875)"/>
                                <path id="Rectangle_120" d="M0 0h74.13v8.25H0z" class="cls-5" data-name="Rectangle 120" transform="translate(4.706 4.875)"/>
                                <path id="Path_10" d="M7.5 337.2v6.119a3.247 3.247 0 0 0 3.247 3.247H87.8a3.247 3.247 0 0 0 3.247-3.247V337.2z" class="cls-2" data-name="Path 10" transform="translate(-7.5 -282.987)"/>
                                <path id="Path_11" d="M443.743 337.2h-9.03v6.119a3.247 3.247 0 0 1-3.247 3.247h9.03a3.247 3.247 0 0 0 3.247-3.247V337.2z" class="cls-6" data-name="Path 11" transform="translate(-360.201 -282.987)"/>
                            </g>
                        </g>
                    </g>
                </g>
            </g>
            <g id="Group_9" data-name="Group 9">
                <path id="Path_12" d="M153.934 174.3a1.411 1.411 0 0 0-1.285-1.339.7.7 0 0 0-.4.107l-7.041 4.6a1.388 1.388 0 0 0-.589 1.1 1.342 1.342 0 0 0 .589 1.071l7.041 4.6a.7.7 0 0 0 .4.107 1.384 1.384 0 0 0 1.285-1.312.871.871 0 0 0-.4-.776l-5.622-3.695 5.622-3.695a.939.939 0 0 0 .4-.768z" data-name="Path 12" transform="translate(-120.308 -145.1)"/>
                <path id="Path_13" d="M227.976 129.487l-9.852 19.678a1.076 1.076 0 0 0-.08.4 1.035 1.035 0 0 0 1.044.991.971.971 0 0 0 .883-.509l9.826-19.6a.785.785 0 0 0 .107-.428 1.092 1.092 0 0 0-1.124-1.017.814.814 0 0 0-.804.485z" data-name="Path 13" transform="translate(-181.391 -108.532)"/>
                <path id="Path_14" d="M306.6 183.244a1.364 1.364 0 0 0 1.285 1.312.615.615 0 0 0 .375-.107l7.041-4.6a1.273 1.273 0 0 0 .589-1.071 1.387 1.387 0 0 0-.589-1.1l-7.041-4.6a.614.614 0 0 0-.375-.107 1.39 1.39 0 0 0-1.285 1.329.991.991 0 0 0 .375.776l5.649 3.695-5.649 3.695a.914.914 0 0 0-.375.778z" data-name="Path 14" transform="translate(-255.062 -145.101)"/>
                <path id="Path_15" d="M81.557 7.208H4.507A4.513 4.513 0 0 0 0 11.715V68.8a4.513 4.513 0 0 0 4.507 4.5h29.981a34.779 34.779 0 0 1-3.788 8.3h-2.578a6.386 6.386 0 0 0-6.378 6.378 2.87 2.87 0 0 0 2.867 2.867h36.843a2.87 2.87 0 0 0 2.867-2.867 6.386 6.386 0 0 0-6.379-6.378h-2.575a34.792 34.792 0 0 1-3.792-8.3h29.982a4.513 4.513 0 0 0 4.507-4.5V11.715a4.513 4.513 0 0 0-4.507-4.507zM4.507 9.729h77.05a1.988 1.988 0 0 1 1.986 1.986v49.7H2.521v-49.7a1.988 1.988 0 0 1 1.986-1.986zM61.8 87.982a.346.346 0 0 1-.345.345H24.61a.346.346 0 0 1-.345-.345 3.861 3.861 0 0 1 3.857-3.857h29.82a3.861 3.861 0 0 1 3.858 3.857zM52.428 81.6H33.636a37.559 37.559 0 0 0 3.483-8.3h11.827a37.568 37.568 0 0 0 3.482 8.3zm29.129-10.818H4.507A1.988 1.988 0 0 1 2.521 68.8v-4.862h81.022V68.8a1.988 1.988 0 0 1-1.986 1.982z" data-name="Path 15" transform="translate(0 -7.208)"/>
                <path id="Path_16" d="M29.26 205.1h74.13a1.261 1.261 0 0 0 1.261-1.261v-19.627a1.261 1.261 0 1 0-2.521 0v18.363H30.52v-18.363a1.261 1.261 0 1 0-2.521 0v19.624a1.261 1.261 0 0 0 1.261 1.264z" data-name="Path 16" transform="translate(-23.293 -153.41)"/>
                <path id="Path_17" d="M29.26 58.354a1.261 1.261 0 0 0 1.261-1.261V46.98h71.608v10.113a1.261 1.261 0 0 0 2.521 0V37.469a1.261 1.261 0 0 0-1.261-1.261H29.26A1.261 1.261 0 0 0 28 37.469v19.624a1.261 1.261 0 0 0 1.26 1.261zm72.869-19.624v5.729H30.52v-5.73z" data-name="Path 17" transform="translate(-23.293 -31.333)"/>
            </g>
        </g>
        <g id="Group_11" data-name="Group 11" transform="translate(58.255 16.293)">
            <path id="Path_18" d="M347.738 63.608a1.175 1.175 0 1 1 1.175-1.175 1.176 1.176 0 0 1-1.175 1.175z" class="cls-4" data-name="Path 18" transform="translate(-346.563 -61.258)"/>
            <path id="Path_19" d="M386.045 63.608a1.175 1.175 0 1 1 1.175-1.175 1.176 1.176 0 0 1-1.175 1.175z" class="cls-4" data-name="Path 19" transform="translate(-378.431 -61.258)"/>
            <path id="Path_20" d="M424.352 63.608a1.175 1.175 0 1 1 1.175-1.175 1.176 1.176 0 0 1-1.175 1.175z" class="cls-4" data-name="Path 20" transform="translate(-410.299 -61.258)"/>
        </g>
    </g>
</svg>
